<svg width="973" height="530" viewBox="0 0 973 530" fill="none" xmlns="http://www.w3.org/2000/svg">
<path d="M972.9 378.6V391.8C972.9 394.7 970.6 397 967.7 397H904.8C904.8 400.3 904.9 403.2 904.9 405.9C904.9 425.4 904.1 441.3 902.2 459.2C901.9 461.9 899.7 463.9 897.1 463.9H883.5C882.1 463.9 880.8 463.3 879.9 462.3C879 461.3 878.5 459.9 878.7 458.5C880.6 440.7 881.5 425 881.5 405.9C881.5 403.1 881.5 400.2 881.4 397H819.2C816.3 397 814 394.7 814 391.8V378.6C814 375.7 816.3 373.4 819.2 373.4H880.5C879.2 351.9 876.6 331.2 872.4 310.2C872.2 308.9 872.5 307.6 873.3 306.6C874.1 305.6 875.3 305 876.6 305H891.3C893.6 305 895.5 306.6 896 308.9C900.1 330.6 902.7 351.7 904 373.4H967.7C970.5 373.4 972.9 375.8 972.9 378.6Z" fill="white"/>
<path d="M182.16 406.28C182.16 396.56 182.52 385.04 182.88 372.08C188.64 368.84 194.4 364.52 200.16 360.2C205.92 355.88 209.52 349.4 209.52 344C209.52 338.96 206.28 334.64 198 334.64C198.36 335.72 198.36 336.44 198.36 337.52C198.36 342.56 194.04 346.16 182.88 353.36C182.16 285.32 173.52 200 115.56 200C68.4 200 32.4 248.24 18 320.96C9.36 323.48 4.68 328.88 4.68 336.44C4.68 342.2 7.2 349.04 12.96 357.32C11.88 368.48 11.52 380.36 11.52 392.24C11.52 416 10.8 439.4 10.44 463.16C10.08 464.24 10.08 464.96 10.08 465.68C10.08 469.28 12.24 473.24 15.84 473.24H29.16C35.64 473.24 42.48 472.88 44.28 466.04L45 390.8V387.2C59.76 395.12 76.68 398 91.8 399.08C98.28 398.36 105.12 397.28 111.6 396.2C128.88 419.24 145.8 450.56 151.2 472.16C155.16 473.6 159.48 474.32 164.52 474.32C168.84 474.32 173.52 473.6 179.28 472.88C180.72 472.52 182.16 465.68 182.16 462.8V406.28ZM113.04 225.92C146.88 225.92 153.72 283.52 153.72 333.56C153.72 346.16 153 358.4 152.64 368.84C143.64 372.44 134.28 374.96 124.92 377.12C103.32 351.56 79.56 331.76 59.76 323.12C57.24 322.4 54.72 322.04 52.2 321.68C63.72 266.6 87.48 225.92 113.04 225.92ZM48.6 342.2C64.08 346.88 82.08 361.64 98.64 380.36C79.56 380.36 61.2 376.04 46.08 365.24C46.44 357.32 47.52 349.76 48.6 342.2ZM150.48 403.04V411.68C145.8 404.48 141.12 397.64 136.08 391.16C141.48 389.72 146.52 388.28 151.56 386.48C150.84 394.4 150.48 400.52 150.48 403.04ZM253.789 331.76C247.309 333.92 244.789 335.72 242.629 339.68C234.709 354.44 219.589 394.76 219.589 421.76C219.589 440.12 222.829 463.52 246.949 463.52C264.589 463.52 291.229 440.48 291.229 425C291.229 422.84 290.869 416.72 287.269 416.72C283.669 416.72 276.469 420.32 271.069 422.48C259.909 426.44 251.989 430.76 246.949 430.76C244.789 430.76 242.989 427.88 242.989 424.64V423.2C249.109 373.16 259.549 365.6 259.909 339.68C259.909 334.28 259.189 331.76 253.789 331.76ZM403.04 437.96C403.04 433.28 398.36 427.16 394.04 427.16C390.44 427.16 385.76 427.52 382.16 427.88C359.12 430.04 345.44 433.64 343.64 433.64C347.24 425.72 350.48 417.08 352.28 409.52C353 408.08 353.72 408.08 354.44 408.08C372.44 408.08 388.64 407.36 395.12 407C398.36 406.64 399.08 401.24 399.08 398.36C399.08 395.12 398.72 390.44 396.92 387.92L391.88 387.2H365.24C362.72 387.2 362 385.04 362 383.6C362 374.6 364.88 369.92 366.32 368.48C368.12 368.12 369.92 368.12 371.72 368.12C381.44 367.76 385.04 368.12 400.52 367.04C407.36 366.68 419.96 362.72 419.96 359.12C419.96 353 411.68 345.44 408.44 341.48C400.88 339.32 396.92 338.96 393.68 338.96C364.16 338.96 346.52 345.44 331.4 346.16C325.28 346.52 322.04 347.6 322.04 351.56C322.04 359.12 334.28 363.8 342.56 367.76L333.92 387.56C330.68 387.92 327.44 389.36 324.56 390.44C323.84 393.32 322.76 394.76 322.76 397.64C322.76 401.24 324.56 403.4 325.64 407C321.68 418.16 316.64 429.32 316.64 437.6C316.64 453.08 325.64 467.84 345.44 467.84C369.2 467.84 391.16 450.92 400.88 443.36C402.68 442.28 403.04 440.12 403.04 437.96ZM517.407 448.76C521.007 453.44 535.407 467.48 538.287 467.48C549.087 467.48 554.487 455.24 554.487 440.48C554.487 434.72 553.767 427.88 551.967 422.12C549.447 431.12 547.647 435.44 541.167 435.44C530.007 435.44 515.607 404.84 506.607 391.16C512.007 381.44 517.047 373.88 522.807 368.48C529.287 363.08 535.407 357.32 540.807 357.32C542.967 357.32 545.127 358.04 546.567 360.56C544.767 340.4 539.727 338.6 533.607 338.6C527.127 338.6 519.207 342.56 509.127 351.2C503.367 356.24 497.967 362.36 492.927 369.2L478.527 343.28C476.007 337.88 473.127 333.92 470.247 331.04C462.327 331.04 455.487 332.84 449.367 336.8C447.927 338.24 447.567 340.4 447.567 342.92C447.567 345.44 447.927 347.96 449.367 349.76C459.087 368.84 464.127 377.12 477.447 395.48C467.727 413.48 459.447 433.64 454.767 452.36C453.687 455.6 452.967 460.28 452.967 464.24C452.967 468.56 453.687 472.16 456.207 472.16C463.407 472.16 474.567 468.92 478.167 457.04C480.687 449.12 486.447 433.28 493.287 417.08L517.407 448.76ZM665.722 239.6C663.562 231.68 650.962 225.56 635.122 225.56C600.922 225.56 565.282 257.24 565.282 281C565.282 288.92 569.242 295.4 574.642 302.6C574.282 304.4 573.562 306.92 573.562 308.72C574.282 316.64 578.962 323.48 582.562 324.2C587.962 323.48 589.402 319.52 593.362 314.84C599.842 317 608.842 318.08 616.042 318.08C639.802 318.08 687.322 286.4 687.322 258.68C687.322 245.36 673.282 239.24 667.162 239.24C666.442 239.24 666.082 239.6 665.722 239.6ZM603.082 338.6C601.642 338.6 601.282 339.32 600.922 341.12C596.242 377.48 595.162 397.28 594.802 402.32C594.082 421.4 593.722 421.76 593.722 440.12C594.082 443.72 596.242 457.76 600.922 459.2C603.802 460.28 608.122 461.36 611.002 461.36C620.002 461.36 622.162 454.52 622.162 448.76C622.162 419.96 619.282 389.36 618.562 360.2C617.842 346.52 616.042 338.96 603.082 338.6ZM604.522 293.96C619.282 273.8 639.802 253.64 660.682 253.64C670.042 253.64 670.042 257.6 670.042 262.64C670.042 284.6 633.322 296.84 615.322 296.84H607.402C606.322 296.84 604.522 294.68 604.522 293.96ZM582.922 281C584.362 266.96 595.522 253.64 613.522 250.04C614.242 250.76 614.242 251.48 614.242 251.84V252.2C605.962 260.12 590.842 274.52 586.162 281C585.802 281.36 585.082 281.72 584.362 281.72C583.642 281.72 583.282 281.36 582.922 281ZM678.026 370.28C681.626 368.12 686.666 366.68 698.546 364.88C710.066 362.72 747.146 361.28 759.746 359.48C762.626 359.12 768.746 358.04 771.626 357.32C775.586 355.88 779.186 353.36 779.546 349.04C779.546 345.08 778.106 344 775.586 343.64C763.706 340.76 747.506 337.52 729.506 337.52C726.266 337.52 657.866 340.04 657.866 373.88C657.866 389 663.266 393.32 704.666 394.4C720.146 394.76 757.946 400.16 757.946 412.76C757.946 426.08 708.266 431.84 701.426 431.84C688.466 431.84 672.266 431.84 672.266 422.84C672.266 414.92 678.386 413.84 683.426 413.84C697.466 413.84 711.866 422.48 722.306 422.48C731.306 422.48 739.946 418.16 742.826 415.28C743.186 414.92 743.546 414.2 743.546 413.12C743.546 412.4 743.186 412.04 742.826 411.68C728.066 404.12 710.066 400.52 696.386 400.52C681.986 400.52 663.626 405.2 663.626 422.84C663.626 437.6 690.626 457.04 721.226 457.04C732.746 457.04 775.946 454.88 775.946 416C775.946 382.16 739.586 381.8 715.106 380C700.706 379.28 691.706 377.48 678.026 372.44C677.666 372.44 677.306 372.08 677.306 371.72C677.306 371.36 677.666 370.64 678.026 370.28Z" fill="white"/>
<path d="M887.3 273.9C854.8 194 799.9 125.9 728.5 76.9C655.4 26.8 569.7 0.299988 480.7 0.299988C333.5 0.299988 196.9 73.4 115.4 195.9C114.5 197.2 114.3 198.9 114.8 200.4C115.3 202 116.5 203.1 118 203.6L129.4 207.5C130.1 207.7 130.8 207.8 131.4 207.8C133.5 207.8 135.5 206.7 136.7 205C174.1 150 224.7 104.3 283.1 72.7C343.4 40.1 411.7 22.8 480.6 22.8C563.9 22.8 644.2 47.4 713 93.8C780.1 139.1 832.2 202.4 863.7 276.7C864.6 278.9 866.8 280.4 869.2 280.4H882.8C884.4 280.4 885.9 279.6 886.7 278.3C887.7 277 887.9 275.4 887.3 273.9ZM131.4 204.4C131.1 204.4 130.8 204.3 130.5 204.2C130.8 204.3 131.1 204.4 131.4 204.4C131.5 204.4 131.6 204.4 131.6 204.4C131.6 204.4 131.5 204.4 131.4 204.4ZM866.4 278.6C866.7 278.8 867 279 867.3 279.1C867 278.9 866.7 278.8 866.4 278.6Z" fill="url(#paint0_radial_1_4)"/>
<defs>
<radialGradient id="paint0_radial_1_4" cx="0" cy="0" r="1" gradientUnits="userSpaceOnUse" gradientTransform="translate(874.524 279.896) scale(760.124 760.124)">
<stop offset="0.00708621" stop-color="white"/>
<stop offset="0.0300991" stop-color="#CBFFFF"/>
<stop offset="0.0570069" stop-color="#96FFFF"/>
<stop offset="0.0842769" stop-color="#68FFFF"/>
<stop offset="0.1113" stop-color="#43FFFF"/>
<stop offset="0.1382" stop-color="#25FFFF"/>
<stop offset="0.1647" stop-color="#11FFFF"/>
<stop offset="0.1908" stop-color="#04FFFF"/>
<stop offset="0.2159" stop-color="#00FFFF"/>
<stop offset="1" stop-color="#0000FF" stop-opacity="0"/>
</radialGradient>
</defs>
</svg>
